<?xml version="1.0" encoding="UTF-8" standalone="no"?>
<!-- Created with Inkscape (http://www.inkscape.org/) -->

<svg
   width="423.56985"
   height="615.90271"
   viewBox="0 0 112.06952 162.95759"
   version="1.1"
   id="svg1"
   xml:space="preserve"
   inkscape:version="1.3.2 (091e20e, 2023-11-25, custom)"
   sodipodi:docname="FAIRtraining_handbook_sticker.svg"
   xmlns:inkscape="http://www.inkscape.org/namespaces/inkscape"
   xmlns:sodipodi="http://sodipodi.sourceforge.net/DTD/sodipodi-0.dtd"
   xmlns="http://www.w3.org/2000/svg"
   xmlns:svg="http://www.w3.org/2000/svg"
   xmlns:rdf="http://www.w3.org/1999/02/22-rdf-syntax-ns#"
   xmlns:cc="http://creativecommons.org/ns#"><sodipodi:namedview
     id="namedview1"
     pagecolor="#ffffff"
     bordercolor="#000000"
     borderopacity="0.25"
     inkscape:showpageshadow="2"
     inkscape:pageopacity="0.0"
     inkscape:pagecheckerboard="0"
     inkscape:deskcolor="#d1d1d1"
     inkscape:document-units="mm"
     inkscape:zoom="1"
     inkscape:cx="275.49999"
     inkscape:cy="281.49999"
     inkscape:window-width="1649"
     inkscape:window-height="1008"
     inkscape:window-x="3207"
     inkscape:window-y="141"
     inkscape:window-maximized="0"
     inkscape:current-layer="layer1"
     showguides="false" /><defs
     id="defs1" /><g
     inkscape:label="Layer 1"
     inkscape:groupmode="layer"
     id="layer1"
     transform="translate(-208.53519,526.81415)"><path
       fill="#c9e891"
       d="m 315.38476,-521.95197 -49.1153,49.11516 49.1153,49.11531 z"
       id="path757"
       style="fill:#005472;fill-opacity:1;stroke:#f7f6f6;stroke-width:0.904067;stroke-dasharray:none;stroke-opacity:1"
       inkscape:export-filename="FAIRtraining_handbook_sticker.svg"
       inkscape:export-xdpi="96"
       inkscape:export-ydpi="96" /><path
       fill="#68c0d2"
       d="m 315.38476,-521.95197 -49.1153,49.11516 -49.11532,-49.11516 z"
       id="path758"
       style="fill:#005472;fill-opacity:1;stroke:#f7f6f6;stroke-width:0.904067;stroke-dasharray:none;stroke-opacity:1" /><path
       fill="#a796c2"
       d="m 262.82968,-419.23313 -24.55767,24.55766 -24.55764,-24.55766 24.55764,-24.55766 z"
       id="path759"
       style="fill:#f47d20;fill-opacity:1;stroke:#4d4848;stroke-width:0.904067;stroke-dasharray:none;stroke-opacity:1" /><path
       fill="#f195c8"
       d="m 213.71437,-468.34846 v 49.11533 l 24.55764,-24.55766 z"
       id="path760"
       style="fill:#f47d20;fill-opacity:1;stroke:#4d4848;stroke-width:0.904067;stroke-dasharray:none;stroke-opacity:1" /><g
       id="g763"
       transform="matrix(0,1.5612286,-1.5612286,0,-118.63643,-1136.8363)"><path
         fill="#ef3d61"
         d="m 475.48935,-260.1504 v 31.45941 l 15.7297,-15.72971 v -31.45939 z"
         id="path761"
         style="fill:#f47d20;fill-opacity:1;stroke:#4d4848;stroke-width:0.579074;stroke-dasharray:none;stroke-opacity:1" /><path
         fill="#f0f223"
         d="m 459.75965,-244.4207 15.7297,15.72971 v -31.45941 z"
         id="path762"
         style="fill:#f47d20;fill-opacity:1;stroke:#4d4848;stroke-width:0.579074;stroke-dasharray:none;stroke-opacity:1" /><path
         fill="#f8c82c"
         d="m 459.75965,-212.96129 31.4594,-31.45941 v 31.45941 z"
         id="path763"
         style="fill:#bebf32;fill-opacity:1;stroke:#4d4848;stroke-width:0.579074;stroke-dasharray:none;stroke-opacity:1" /></g><path
       d="m -169.23831,-503.55121 h -1.46058 v -11.98928 h 7.15056 v 1.31721 h -5.68998 v 3.87098 h 5.04481 v 1.31721 h -5.04481 z m 5.68998,0 4.88352,-11.98928 h 1.26345 l 4.88352,11.98928 h -1.58603 l -1.43369,-3.61112 h -5.00897 l -1.4337,3.61112 z m 5.5018,-10.12547 q -0.79749,2.24015 -1.53226,4.06811 l -0.44803,1.12903 h 3.96955 l -0.44803,-1.12903 q -0.73477,-1.8638 -1.50538,-4.06811 z m 7.36561,10.12547 v -11.98928 h 1.46058 v 11.98928 z m 5.96776,-4.96417 v 4.96417 h -1.46058 v -11.98928 h 3.10933 q 0.78853,0 1.33513,0.0627 0.55556,0.0538 1.01255,0.17921 1.25448,0.3405 1.91756,1.16488 0.66309,0.81541 0.66309,2.04301 0,0.72581 -0.23298,1.29929 -0.23297,0.57348 -0.65412,0.99463 -0.42115,0.42114 -1.01255,0.68996 -0.58244,0.26882 -1.29929,0.39427 v 0.0358 l 3.91578,5.12546 h -1.83692 l -3.69176,-4.96417 z m 0,-5.7079 v 4.39069 h 1.44266 q 0.67204,0 1.14695,-0.0448 0.47491,-0.0448 0.85126,-0.16129 0.76165,-0.23298 1.17384,-0.74373 0.41218,-0.51075 0.41218,-1.33513 -0.009,-0.77061 -0.39426,-1.23656 -0.38531,-0.47491 -1.06631,-0.68101 -0.32258,-0.0986 -0.77061,-0.14336 -0.44803,-0.0448 -1.138,-0.0448 z m 17.38355,10.68999 q -0.17921,0.0717 -0.54659,0.13441 -0.36739,0.0627 -0.87814,0.0717 -0.67205,0 -1.16488,-0.17025 -0.49283,-0.1613 -0.82437,-0.46596 -0.32258,-0.31362 -0.48388,-0.75269 -0.16129,-0.43907 -0.16129,-0.9767 v -5.17922 h -1.63979 v -1.19176 h 1.63979 v -2.32976 h 1.3889 v 2.32976 h 2.54481 v 1.19176 h -2.54481 v 4.96416 q 0,0.2957 0.0806,0.5466 0.0896,0.2509 0.26882,0.43907 0.18817,0.17921 0.47491,0.28674 0.28674,0.0986 0.68997,0.0986 0.27778,0 0.58244,-0.0448 0.31362,-0.0448 0.57347,-0.11648 z m 6.5502,-7.40145 h -0.10753 q -0.49283,0 -0.96774,0.0896 -0.47491,0.0896 -0.89606,0.27778 -0.41219,0.17921 -0.75269,0.44803 -0.33154,0.26881 -0.55556,0.6362 v 5.93191 h -1.38889 v -8.51256 h 1.07527 l 0.26882,1.35305 h 0.0269 q 0.20609,-0.33155 0.50179,-0.61829 0.30466,-0.28673 0.68101,-0.50179 0.37634,-0.21505 0.82437,-0.33154 0.44803,-0.12545 0.94087,-0.12545 0.0896,0 0.17921,0.009 0.0986,0 0.17025,0.009 z m 6.46059,6.44267 h -0.0358 q -0.17026,0.21505 -0.43011,0.43011 -0.25986,0.20609 -0.60036,0.37634 -0.34051,0.16129 -0.74373,0.25986 -0.40323,0.0986 -0.86022,0.0986 -0.61828,0 -1.13799,-0.18818 -0.51076,-0.17921 -0.8871,-0.52867 -0.36739,-0.35843 -0.57348,-0.86918 -0.2061,-0.51075 -0.2061,-1.15592 0,-0.6362 0.22402,-1.13799 0.23297,-0.50179 0.64516,-0.85126 0.41219,-0.34946 0.98567,-0.53763 0.58244,-0.18818 1.28136,-0.18818 0.66309,0.009 1.2276,0.11649 0.56452,0.10753 1.00359,0.26882 h 0.0358 v -0.5914 q 0,-0.34946 -0.0448,-0.61828 -0.0448,-0.26882 -0.15233,-0.47491 -0.23298,-0.43011 -0.74373,-0.70789 -0.51075,-0.28674 -1.37993,-0.28674 -0.64516,0 -1.21864,0.12545 -0.56452,0.11649 -1.12904,0.33154 v -1.16488 q 0.21506,-0.10752 0.5018,-0.19713 0.2957,-0.0986 0.61828,-0.16129 0.32258,-0.0717 0.681,-0.10753 0.35843,-0.0358 0.71685,-0.0358 1.29033,0 2.10574,0.45699 0.82438,0.45699 1.1828,1.20968 0.13441,0.28674 0.18817,0.6362 0.0627,0.34051 0.0627,0.75269 v 5.68102 h -1.16488 z m -0.0717,-2.79571 q -0.3853,-0.10752 -0.91398,-0.20609 -0.52867,-0.0986 -1.16487,-0.10753 -0.8871,0 -1.3889,0.37635 -0.50179,0.37634 -0.50179,1.15591 0,0.39427 0.12545,0.68997 0.12545,0.2957 0.3405,0.49283 0.22402,0.18818 0.51972,0.28674 0.30466,0.0896 0.64516,0.0896 0.44803,0 0.83333,-0.12545 0.38531,-0.13441 0.68101,-0.31362 0.30466,-0.17921 0.51075,-0.35843 0.21506,-0.17921 0.31362,-0.27777 z m 4.16668,3.73657 v -8.51256 h 1.38889 v 8.51256 z m -0.0358,-10.49286 v -1.55018 h 1.46057 v 1.55018 z m 5.54661,3.16309 h 0.0269 q 0.23297,-0.2957 0.51075,-0.54659 0.28674,-0.25986 0.6362,-0.44803 0.34947,-0.19713 0.76165,-0.30466 0.42115,-0.10753 0.91398,-0.10753 0.58244,0 1.0932,0.16129 0.51075,0.16129 0.887097,0.51972 0.376345,0.35842 0.591399,0.94086 0.224015,0.57348 0.224015,1.41577 v 5.69894 h -1.388891 v -5.47492 q 0,-1.10216 -0.43011,-1.58603 -0.42115,-0.48387 -1.23656,-0.48387 -0.71685,0 -1.38889,0.40323 -0.67205,0.39426 -1.15592,1.09319 v 6.0484 h -1.38889 v -8.51256 h 1.07527 z m 8.422957,7.32977 v -8.51256 h 1.388892 v 8.51256 z m -0.03584,-10.49286 v -1.55018 h 1.460577 v 1.55018 z m 5.546605,3.16309 h 0.02688 q 0.232975,-0.2957 0.510754,-0.54659 0.286739,-0.25986 0.636202,-0.44803 0.349463,-0.19713 0.761651,-0.30466 0.421148,-0.10753 0.91398,-0.10753 0.582439,0 1.093193,0.16129 0.510754,0.16129 0.887099,0.51972 0.376345,0.35842 0.591399,0.94086 0.224015,0.57348 0.224015,1.41577 v 5.69894 h -1.388892 v -5.47492 q 0,-1.10216 -0.430109,-1.58603 -0.421148,-0.48387 -1.236562,-0.48387 -0.716847,0 -1.388892,0.40323 -0.672045,0.39426 -1.155917,1.09319 v 6.0484 h -1.388892 v -8.51256 h 1.075271 z m 9.292139,3.12725 q 0,1.00359 0.241936,1.63979 0.241936,0.6362 0.60932,0.99463 0.376346,0.34946 0.815415,0.48387 0.439069,0.12545 0.833335,0.12545 0.645163,0 1.20968,-0.25986 0.564518,-0.25986 0.994626,-0.70789 v -4.45341 q -0.116487,-0.16129 -0.322581,-0.36739 -0.206094,-0.20609 -0.483872,-0.37634 -0.268818,-0.17921 -0.618281,-0.2957 -0.349463,-0.12545 -0.761651,-0.12545 -0.618281,0 -1.093192,0.2509 -0.465951,0.24193 -0.788533,0.681 -0.313621,0.43907 -0.474911,1.05735 -0.161291,0.60932 -0.161291,1.35305 z m 2.338715,-4.53406 q 0.555557,0.009 0.967745,0.14337 0.412187,0.13441 0.707887,0.3405 0.295699,0.19714 0.465951,0.39427 0.179212,0.19713 0.241936,0.31362 h 0.03584 l 0.286739,-0.96774 h 1.04839 v 9.01435 q 0,0.98567 -0.322582,1.71148 -0.322581,0.73477 -0.90502,1.21864 -0.582438,0.48387 -1.406813,0.71685 -0.815414,0.24193 -1.810041,0.24193 -0.842295,0 -1.50538,-0.15233 -0.663084,-0.14337 -1.039429,-0.34946 v -1.17384 q 0.304661,0.12545 0.5914,0.2061 0.286739,0.0896 0.591399,0.14337 0.30466,0.0627 0.618281,0.0896 0.322582,0.0269 0.707887,0.0269 1.49642,0 2.293913,-0.69892 0.797492,-0.69893 0.797492,-2.13263 v -1.13799 h -0.02688 q -0.456991,0.50179 -1.066311,0.76165 -0.60036,0.2509 -1.379932,0.2509 -0.358424,0 -0.770611,-0.0807 -0.412187,-0.0806 -0.824375,-0.26882 -0.412187,-0.19713 -0.788532,-0.51075 -0.376345,-0.32258 -0.663084,-0.79749 -0.286739,-0.48388 -0.465951,-1.138 -0.170252,-0.65412 -0.170252,-1.51434 0,-1.19176 0.322582,-2.06094 0.322581,-0.87814 0.851256,-1.45161 0.528676,-0.57348 1.209681,-0.85126 0.681005,-0.28674 1.406813,-0.28674 z"
       id="text764"
       style="font-size:18.3513px;font-family:Corbel;-inkscape-font-specification:Corbel;text-align:center;text-anchor:middle;white-space:pre;fill:#4d4848;stroke-width:7.93488"
       transform="rotate(45)"
       aria-label="FAIR training" /><path
       d="m -169.04929,-495.11908 h 0.0221 q 0.19114,-0.2426 0.42639,-0.44844 0.23525,-0.21319 0.52195,-0.36022 0.28671,-0.15438 0.61753,-0.2426 0.33081,-0.0882 0.71309,-0.0882 0.39698,0 0.79396,0.11027 0.39698,0.10292 0.73514,0.37493 0.33817,0.272 0.55136,0.7572 0.2132,0.48519 0.2132,1.24975 v 4.67553 h -1.13948 v -4.49175 q 0,-0.84541 -0.32347,-1.2718 -0.31611,-0.42638 -1.0439,-0.42638 -0.60282,0 -1.14683,0.33081 -0.54401,0.32347 -0.94099,0.89688 v 4.96224 h -1.13948 v -10.64492 h 1.13948 z m 10.88752,5.25629 h -0.0294 q -0.13967,0.17644 -0.35287,0.35288 -0.21319,0.16908 -0.49254,0.30876 -0.27936,0.13232 -0.61018,0.21319 -0.33081,0.0809 -0.70574,0.0809 -0.50725,0 -0.93363,-0.15439 -0.41904,-0.14702 -0.7278,-0.43373 -0.30141,-0.29406 -0.47049,-0.71309 -0.16909,-0.41904 -0.16909,-0.94834 0,-0.52196 0.18379,-0.93364 0.19114,-0.41168 0.52931,-0.69839 0.33816,-0.28671 0.80866,-0.44109 0.47784,-0.15438 1.05126,-0.15438 0.54401,0.007 1.00715,0.0956 0.46314,0.0882 0.82336,0.22055 h 0.0294 v -0.4852 q 0,-0.28671 -0.0368,-0.50725 -0.0368,-0.22055 -0.12497,-0.38963 -0.19114,-0.35287 -0.61018,-0.58077 -0.41903,-0.23524 -1.13212,-0.23524 -0.52931,0 -0.9998,0.10292 -0.46314,0.0956 -0.92629,0.272 v -0.95569 q 0.17644,-0.0882 0.41169,-0.16173 0.2426,-0.0809 0.50725,-0.13233 0.26465,-0.0588 0.55871,-0.0882 0.29406,-0.0294 0.58812,-0.0294 1.05861,0 1.72759,0.37492 0.67634,0.37493 0.97039,0.99245 0.11028,0.23525 0.15439,0.52196 0.0515,0.27935 0.0515,0.61752 v 4.66083 h -0.9557 z m -0.0588,-2.29365 q -0.31611,-0.0882 -0.74985,-0.16909 -0.43374,-0.0809 -0.95569,-0.0882 -0.7278,0 -1.13948,0.30876 -0.41168,0.30876 -0.41168,0.94834 0,0.32346 0.10292,0.56606 0.10292,0.2426 0.27936,0.40433 0.18378,0.15438 0.42638,0.23525 0.24995,0.0735 0.52931,0.0735 0.36757,0 0.68368,-0.10292 0.31612,-0.11027 0.55871,-0.2573 0.24995,-0.14703 0.41904,-0.29406 0.17643,-0.14703 0.2573,-0.22789 z m 4.44763,-2.94794 h 0.0221 q 0.19114,-0.2426 0.41903,-0.44844 0.23525,-0.21319 0.52196,-0.36757 0.2867,-0.16173 0.62487,-0.24995 0.34552,-0.0882 0.74985,-0.0882 0.47785,0 0.89688,0.13233 0.41903,0.13232 0.72779,0.42638 0.30877,0.29406 0.4852,0.77191 0.18379,0.47049 0.18379,1.16153 v 4.67553 h -1.13948 v -4.49175 q 0,-0.90423 -0.35287,-1.30121 -0.34552,-0.39697 -1.0145,-0.39697 -0.58812,0 -1.13948,0.33081 -0.55136,0.32347 -0.94834,0.89688 v 4.96224 h -1.13948 v -6.98389 h 0.88218 z m 7.62347,2.59507 q 0,0.60282 0.13233,1.09537 0.13968,0.48519 0.39698,0.83071 0.2573,0.33817 0.63223,0.52196 0.37492,0.18378 0.86012,0.18378 0.36022,0 0.65428,-0.0956 0.29406,-0.0956 0.52195,-0.2426 0.23525,-0.14702 0.39698,-0.30876 0.16908,-0.16908 0.26465,-0.30876 v -3.65368 q -0.35287,-0.36022 -0.81601,-0.57341 -0.46314,-0.22054 -0.9998,-0.22054 -0.32346,0 -0.68369,0.12497 -0.35287,0.11762 -0.66163,0.43374 -0.30141,0.31611 -0.4999,0.85277 -0.19849,0.5293 -0.19849,1.36002 z m -1.19093,0.0147 q 0,-0.72779 0.13967,-1.28651 0.14703,-0.56606 0.38228,-0.98509 0.23525,-0.41904 0.55136,-0.69839 0.31611,-0.28671 0.65428,-0.46314 0.33817,-0.17644 0.68369,-0.24995 0.35287,-0.0809 0.66163,-0.0809 0.63958,0 1.11007,0.21319 0.47049,0.2132 0.84542,0.62488 h 0.022 v -4.31531 h 1.13948 v 10.64492 h -0.86012 l -0.23525,-0.77926 h -0.0294 q -0.13233,0.16909 -0.30877,0.34552 -0.17643,0.16909 -0.41903,0.30876 -0.23525,0.13968 -0.55136,0.22055 -0.30876,0.0882 -0.72044,0.0882 -0.57342,0 -1.12478,-0.19114 -0.55136,-0.19849 -0.98509,-0.62488 -0.42639,-0.43373 -0.69104,-1.11007 -0.26465,-0.68368 -0.26465,-1.66143 z m 13.54139,-0.11762 q 0,-0.83072 -0.19849,-1.34532 -0.19113,-0.52196 -0.49989,-0.80866 -0.30142,-0.29406 -0.64693,-0.40433 -0.34552,-0.11027 -0.69104,-0.11027 -0.52931,0 -0.9998,0.22054 -0.46314,0.22054 -0.82336,0.57341 v 3.65368 q 0.10292,0.13968 0.26465,0.30876 0.16908,0.16174 0.39698,0.30876 0.22789,0.13968 0.50725,0.2426 0.28671,0.0956 0.62487,0.0956 0.50725,0 0.88953,-0.19849 0.38963,-0.19849 0.64693,-0.55871 0.26465,-0.36757 0.39698,-0.86747 0.13232,-0.50725 0.13232,-1.11007 z m 1.19094,-0.0882 q 0,0.97774 -0.26465,1.69084 -0.26465,0.71309 -0.69839,1.18358 -0.43374,0.46314 -0.99245,0.69104 -0.55871,0.2279 -1.15418,0.2279 -0.44844,0 -0.79396,-0.11763 -0.33816,-0.11027 -0.58076,-0.26465 -0.23525,-0.16173 -0.38228,-0.32347 -0.13968,-0.16173 -0.19849,-0.2573 h -0.0221 l -0.2426,0.77926 h -0.86012 v -10.64492 h 1.13948 v 4.31531 h 0.0221 q 0.37492,-0.39698 0.87482,-0.61753 0.4999,-0.22054 1.13948,-0.22054 0.29406,0 0.63223,0.0662 0.34552,0.0662 0.67633,0.2279 0.33817,0.16173 0.64693,0.42638 0.30876,0.26466 0.54401,0.66164 0.23525,0.38962 0.37492,0.93363 0.13968,0.53666 0.13968,1.2424 z m 6.83687,0.12497 q 0,-0.64692 -0.16174,-1.14682 -0.15438,-0.50726 -0.44108,-0.85277 -0.27936,-0.35287 -0.66899,-0.52931 -0.38962,-0.18379 -0.85277,-0.18379 -0.46314,0 -0.85277,0.18379 -0.38962,0.17644 -0.67633,0.52931 -0.27936,0.34551 -0.44109,0.85277 -0.15438,0.4999 -0.15438,1.14682 0,0.63958 0.15438,1.14683 0.16173,0.4999 0.44844,0.84542 0.28671,0.34552 0.67633,0.52931 0.38963,0.17643 0.85277,0.17643 0.46315,0 0.84542,-0.17643 0.38963,-0.18379 0.66899,-0.52931 0.2867,-0.34552 0.44108,-0.84542 0.16174,-0.50725 0.16174,-1.14683 z m 1.19093,0 q 0,0.82337 -0.23524,1.4997 -0.23525,0.67634 -0.66899,1.16153 -0.42638,0.47785 -1.03655,0.7425 -0.61017,0.26466 -1.36738,0.26466 -0.77925,0 -1.39677,-0.26466 -0.61018,-0.26465 -1.04391,-0.7425 -0.42639,-0.48519 -0.65428,-1.16153 -0.2279,-0.67633 -0.2279,-1.4997 0,-0.83071 0.23525,-1.50705 0.23525,-0.67633 0.66163,-1.16153 0.43374,-0.48519 1.04391,-0.74985 0.61752,-0.26465 1.37472,-0.26465 0.77191,0 1.38943,0.26465 0.61752,0.26466 1.04391,0.74985 0.42638,0.4852 0.65428,1.16153 0.22789,0.67634 0.22789,1.50705 z m 6.83686,0 q 0,-0.64692 -0.16173,-1.14682 -0.15438,-0.50726 -0.44109,-0.85277 -0.27935,-0.35287 -0.66898,-0.52931 -0.38963,-0.18379 -0.85277,-0.18379 -0.46314,0 -0.85277,0.18379 -0.38963,0.17644 -0.67633,0.52931 -0.27936,0.34551 -0.44109,0.85277 -0.15438,0.4999 -0.15438,1.14682 0,0.63958 0.15438,1.14683 0.16173,0.4999 0.44844,0.84542 0.2867,0.34552 0.67633,0.52931 0.38963,0.17643 0.85277,0.17643 0.46314,0 0.84542,-0.17643 0.38963,-0.18379 0.66898,-0.52931 0.28671,-0.34552 0.44109,-0.84542 0.16173,-0.50725 0.16173,-1.14683 z m 1.19094,0 q 0,0.82337 -0.23525,1.4997 -0.23524,0.67634 -0.66898,1.16153 -0.42638,0.47785 -1.03655,0.7425 -0.61018,0.26466 -1.36738,0.26466 -0.77925,0 -1.39678,-0.26466 -0.61017,-0.26465 -1.0439,-0.7425 -0.42639,-0.48519 -0.65428,-1.16153 -0.2279,-0.67633 -0.2279,-1.4997 0,-0.83071 0.23525,-1.50705 0.23524,-0.67633 0.66163,-1.16153 0.43374,-0.48519 1.04391,-0.74985 0.61752,-0.26465 1.37472,-0.26465 0.7719,0 1.38943,0.26465 0.61752,0.26466 1.04391,0.74985 0.42638,0.4852 0.65428,1.16153 0.22789,0.67634 0.22789,1.50705 z m 6.32226,-3.49929 h 1.485 l -3.41108,3.21259 3.40372,3.7713 h -1.41883 l -3.35227,-3.71984 h -0.0147 v 3.71984 h -1.13948 v -10.64492 h 1.13948 v 6.77805 h 0.0147 z"
       id="text766"
       style="font-size:15.0558px;font-family:Corbel;-inkscape-font-specification:Corbel;text-align:center;text-anchor:middle;white-space:pre;fill:#4d4848;stroke-width:6.50991"
       transform="rotate(45)"
       aria-label="handbook" /><rect
       style="fill:none;fill-opacity:0.705882;stroke:#c9ced0;stroke-width:1.43816;stroke-linecap:round;stroke-opacity:1;paint-order:markers fill stroke"
       id="rect6"
       width="110.63136"
       height="161.51944"
       x="209.25427"
       y="-526.09509" /></g><metadata
     id="metadata2568"><rdf:RDF><cc:Work
         rdf:about=""><cc:license
           rdf:resource="http://creativecommons.org/licenses/by/4.0/" /></cc:Work><cc:License
         rdf:about="http://creativecommons.org/licenses/by/4.0/"><cc:permits
           rdf:resource="http://creativecommons.org/ns#Reproduction" /><cc:permits
           rdf:resource="http://creativecommons.org/ns#Distribution" /><cc:requires
           rdf:resource="http://creativecommons.org/ns#Notice" /><cc:requires
           rdf:resource="http://creativecommons.org/ns#Attribution" /><cc:permits
           rdf:resource="http://creativecommons.org/ns#DerivativeWorks" /></cc:License></rdf:RDF></metadata></svg>
